<svg width="439" height="446" viewBox="0 0 439 446" fill="none" xmlns="http://www.w3.org/2000/svg">
<path d="M166.594 61.4816C185.098 118.725 242.639 204.685 324.771 90.5742C292.393 138.291 262.146 231.215 400.176 221.179C346.321 241.774 261.87 293.62 354.899 336.242C310.956 320.425 228.832 306.927 245.018 376.384C245.423 377.796 245.776 379.186 246.079 380.545C245.687 379.126 245.334 377.739 245.018 376.384C236.621 347.104 205.976 308.924 140.388 363.758C158.167 341.143 168.846 292.121 69.3283 276.958C108.65 270.629 164.111 242.91 89.9584 181.665C85.0865 178.421 80.4632 174.798 76.2625 171.064C81.2509 174.704 85.8077 178.237 89.9584 181.665C128.065 207.045 181.377 209.318 166.594 61.4816Z" fill="black"/>
<path fill-rule="evenodd" clip-rule="evenodd" d="M318.159 100.141C300.254 122.962 283.546 136.317 268.182 142.641C250.816 149.789 235.203 147.94 221.607 140.688C208.031 133.448 196.485 120.833 187.183 106.472C178.693 93.3657 172.054 78.7792 167.434 65.4313C170.702 100.416 170.061 126.776 166.665 146.276C163.141 166.507 156.643 179.403 148.417 186.867C140.174 194.347 130.253 196.322 120.022 194.835C111.677 193.621 103.115 190.104 95.0486 185.387C110.649 199.011 119.733 210.943 123.97 221.33C128.635 232.765 127.423 242.324 122.585 250.145C117.763 257.94 109.371 263.961 99.7608 268.425C91.0264 272.482 81.2489 275.271 72.1397 276.937C120.025 284.692 141.757 300.498 149.261 317.378C156.275 333.154 150.779 349.68 142.923 361.083C174.337 335.708 197.67 331.851 214.31 338.101C228.94 343.596 238.245 356.85 243.269 369.769C241.141 355.824 243.425 345.593 248.812 338.314C255.025 329.92 265.287 325.557 277.348 323.883C298.971 320.883 326.619 326.492 347.958 333.391C329.004 323.694 318.672 313.537 314.728 303.343C310.325 291.96 313.934 280.671 322.096 270.17C330.254 259.674 343.007 249.896 357.064 241.461C370.167 233.599 384.43 226.888 397.222 221.837C364.268 223.915 341.108 219.987 325.405 212.124C309.208 204.014 300.973 191.73 298.123 177.624C295.278 163.543 297.806 147.68 303.051 132.375C306.939 121.031 312.328 109.973 318.159 100.141ZM245.46 376.27C241.434 358.985 243.546 346.964 249.546 338.857C255.553 330.741 265.533 326.444 277.473 324.788C301.363 321.473 332.795 328.771 354.745 336.672L355.09 335.827C331.867 325.188 319.838 314.021 315.58 303.014C311.336 292.045 314.762 281.093 322.817 270.731C330.875 260.363 343.518 250.654 357.534 242.244C371.544 233.838 386.895 226.747 400.339 221.606L400.143 220.724C365.675 223.23 341.779 219.302 325.814 211.308C309.873 203.326 301.813 191.279 299.018 177.443C296.218 163.583 298.696 147.896 303.915 132.671C309.131 117.452 317.072 102.733 325.149 90.8305L324.4 90.3076C303.893 118.8 284.958 134.748 267.835 141.797C250.734 148.836 235.406 147.013 222.037 139.883C208.649 132.742 197.206 120.266 187.949 105.976C178.694 91.6894 171.644 75.6214 167.028 61.3412L166.14 61.527C169.833 98.4637 169.27 125.996 165.765 146.119C162.26 166.248 155.82 178.917 147.803 186.191C139.803 193.451 130.174 195.388 120.154 193.931C110.126 192.473 99.7208 187.616 90.2311 181.299C86.0775 177.869 81.5194 174.335 76.5316 170.695L75.9592 171.405C80.1687 175.147 84.8019 178.778 89.6857 182.032C108.186 197.315 118.554 210.468 123.125 221.675C127.688 232.86 126.482 242.11 121.808 249.665C117.119 257.246 108.907 263.17 99.3762 267.597C89.8522 272.021 79.0552 274.93 69.2558 276.507L69.2596 277.409C118.976 284.984 140.978 300.992 148.427 317.749C155.876 334.505 148.869 352.231 140.029 363.476L140.68 364.108C173.422 336.735 197.306 332.69 213.989 338.955C230.698 345.231 240.394 361.923 244.576 376.499C244.893 377.857 245.247 379.246 245.639 380.666L246.524 380.445C246.22 379.081 245.866 377.686 245.46 376.27Z" fill="black"/>
<path d="M312.385 232.494C312.385 259.208 297.496 280.865 279.13 280.865C260.764 280.865 245.875 259.208 245.875 232.494C245.875 205.779 260.764 184.123 279.13 184.123C297.496 184.123 312.385 205.779 312.385 232.494Z" fill="#DCC445"/>
<path fill-rule="evenodd" clip-rule="evenodd" d="M301.366 265.818C307.184 257.355 310.833 245.577 310.833 232.494C310.833 219.41 307.184 207.633 301.366 199.169C295.543 190.699 287.655 185.675 279.13 185.675C270.605 185.675 262.717 190.699 256.894 199.169C251.075 207.633 247.427 219.41 247.427 232.494C247.427 245.577 251.075 257.355 256.894 265.818C262.717 274.288 270.605 279.313 279.13 279.313C287.655 279.313 295.543 274.288 301.366 265.818ZM279.13 280.865C297.496 280.865 312.385 259.208 312.385 232.494C312.385 205.779 297.496 184.123 279.13 184.123C260.764 184.123 245.875 205.779 245.875 232.494C245.875 259.208 260.764 280.865 279.13 280.865Z" fill="#FF0008"/>
<path fill-rule="evenodd" clip-rule="evenodd" d="M309.732 254.433C309.02 251.201 309.313 247.291 309.81 244.672L308.914 244.501C308.403 247.186 308.092 251.231 308.841 254.629C309.124 255.917 309.565 257.134 310.223 258.153C308.574 257.921 306.692 257.944 304.711 258.465L304.321 258.568L304.375 258.968C304.63 260.85 305.242 263.751 306.253 266.352C306.387 266.695 306.528 267.034 306.676 267.366C304.827 266.368 302.58 265.789 300.176 266.421L299.933 266.485L299.857 266.725C299.588 267.574 299.353 268.988 299.498 270.525C299.586 271.466 299.819 272.465 300.282 273.413C299.733 273.149 299.127 272.902 298.498 272.711C297.058 272.274 295.402 272.103 294.033 272.823L294.459 273.631C295.509 273.078 296.875 273.172 298.233 273.584C299.576 273.992 300.818 274.684 301.542 275.192L302.135 274.504C301.016 273.326 300.539 271.843 300.407 270.44C300.288 269.176 300.452 268.006 300.657 267.243C302.829 266.754 304.879 267.36 306.599 268.37C306.903 268.549 307.196 268.739 307.476 268.938C307.674 269.277 307.881 269.599 308.1 269.9C308.825 270.902 309.693 271.705 310.722 272.067L312.08 272.543L311.245 271.371C310.617 270.49 309.548 269.32 308.17 268.313C307.778 267.616 307.422 266.838 307.104 266.021C306.195 263.683 305.615 261.077 305.338 259.251C307.451 258.766 309.431 258.877 311.082 259.232C312.14 260.306 313.561 260.954 315.408 260.954H316.853L315.671 260.124C314.886 259.574 313.429 258.845 311.556 258.403C310.668 257.41 310.082 256.022 309.732 254.433Z" fill="#FF0000"/>
<path d="M263.079 189.831L293.184 207.212L275.803 237.318L245.698 219.936L263.079 189.831Z" fill="#FF0000"/>
<path d="M202.029 234.005C202.029 258.215 188.218 277.841 171.182 277.841C154.145 277.841 140.334 258.215 140.334 234.005C140.334 209.795 154.145 190.169 171.182 190.169C188.218 190.169 202.029 209.795 202.029 234.005Z" fill="#DCC445"/>
<path fill-rule="evenodd" clip-rule="evenodd" d="M191.725 264.109C197.102 256.468 200.477 245.829 200.477 234.005C200.477 222.181 197.102 211.543 191.725 203.902C186.345 196.256 179.058 191.721 171.182 191.721C163.305 191.721 156.019 196.256 150.638 203.902C145.261 211.543 141.886 222.181 141.886 234.005C141.886 245.829 145.261 256.468 150.638 264.109C156.019 271.755 163.305 276.29 171.182 276.29C179.058 276.29 186.345 271.755 191.725 264.109ZM171.182 277.841C188.218 277.841 202.029 258.215 202.029 234.005C202.029 209.795 188.218 190.169 171.182 190.169C154.145 190.169 140.334 209.795 140.334 234.005C140.334 258.215 154.145 277.841 171.182 277.841Z" fill="#FF0000"/>
<path fill-rule="evenodd" clip-rule="evenodd" d="M139.968 247.289C140.737 243.448 140.42 238.81 139.884 235.707L140.784 235.551C141.33 238.714 141.663 243.476 140.863 247.468C140.546 249.049 140.047 250.535 139.293 251.758C141.092 251.465 143.156 251.48 145.332 252.11L145.705 252.218L145.658 252.604C145.384 254.821 144.729 258.238 143.646 261.301C143.48 261.772 143.303 262.236 143.115 262.687C145.117 261.473 147.572 260.748 150.202 261.509L150.444 261.579L150.514 261.821C150.799 262.811 151.049 264.465 150.895 266.263C150.796 267.426 150.526 268.665 149.974 269.829C150.592 269.495 151.282 269.18 152.001 268.94C153.547 268.424 155.33 268.222 156.798 269.072L156.341 269.862C155.212 269.209 153.747 269.32 152.29 269.806C150.846 270.288 149.511 271.106 148.731 271.709L148.106 271.049C149.322 269.641 149.842 267.865 149.986 266.186C150.117 264.651 149.931 263.232 149.703 262.32C147.366 261.733 145.158 262.448 143.301 263.647C142.97 263.861 142.651 264.09 142.347 264.327C142.134 264.73 141.91 265.113 141.674 265.471C140.902 266.644 139.977 267.588 138.875 268.013L137.563 268.52L138.327 267.339C138.999 266.303 140.146 264.922 141.627 263.733C142.055 262.9 142.441 261.972 142.785 260.997C143.779 258.186 144.408 255.052 144.701 252.884C142.415 252.297 140.271 252.427 138.485 252.85C137.358 254.112 135.834 254.884 133.84 254.884H132.501L133.561 254.067C134.401 253.418 135.966 252.556 137.981 252.035C138.951 250.846 139.588 249.185 139.968 247.289Z" fill="#FF0000"/>
<path d="M165.591 193.416L190.848 218.673L165.591 243.93L140.334 218.673L165.591 193.416Z" fill="#FF0000"/>
<path fill-rule="evenodd" clip-rule="evenodd" d="M153.633 229.47V205.285H156.371V229.47H153.633Z" fill="black"/>
<path fill-rule="evenodd" clip-rule="evenodd" d="M262.183 202.262L262.183 226.447L259.444 226.447L259.444 202.262L262.183 202.262Z" fill="black"/>
</svg>
