<svg width="106" height="114" viewBox="0 0 106 114" fill="none" xmlns="http://www.w3.org/2000/svg">
<path d="M47.2028 20.1785L67.3776 20.1785M47.2028 20.1785L47.2028 0.999995M47.2028 20.1785L39.7307 27.6507L42.9686 27.6507L59.9055 27.6507L67.3776 20.1785M67.3776 20.1785L67.3776 0.999994L47.2028 0.999995M47.2028 0.999995L37.9872 10.2157L37.9872 27.6507" stroke="#CFD3DB" stroke-width="1.5"/>
<path d="M56.5645 32.6941L73.2523 49.3819L88.6948 33.9394L94.1743 39.419L100.152 33.4413H91.6836L76.7393 48.3856L58.5571 30.2033H53.0775" stroke="#CFD3DB" stroke-width="1.5"/>
<path d="M37.2459 33.4103L14.4499 39.5185L20.1022 60.6133L12.617 62.6189L14.805 70.7846L19.0392 63.4508L13.5692 43.0365L38.4066 36.3813L41.1464 31.6358" stroke="#CFD3DB" stroke-width="1.5"/>
<path d="M49.7216 75.864L53.4872 35.5468L43.8511 35.4597M43.8511 35.4597L42.5285 35.4477L51.4221 75.8794L42.1638 75.7957L43.8511 35.4597Z" stroke="#CFD3DB" stroke-width="1.5"/>
<path d="M52.8069 75.597L81.4502 61.8981L94.651 103.991L103.867 98.0135L99.3834 111.214L85.1863 64.1397L50.5653 81.0766M42.0968 81.0766L30.1414 106.98H1.49814V95.0246L7.47586 108.973H26.1563L39.6061 78.0877" stroke="#CFD3DB" stroke-width="1.5"/>
</svg>
