<svg width="425" height="425" viewBox="0 0 425 425" fill="none" xmlns="http://www.w3.org/2000/svg">
<path d="M279.177 128.296C288.648 115.458 299.974 105.271 310.474 98.2577C300.105 110.348 289.635 120.266 279.177 128.296C252.031 165.098 240.139 223.687 306.704 291.773C314.667 297.857 321.421 304.321 326.742 310.474C319.39 304.169 312.726 297.932 306.704 291.773C266.734 261.232 196.318 240.278 123.878 316.381C120.745 320.226 117.595 323.693 114.526 326.742C117.645 323.104 120.764 319.653 123.878 316.381C155.823 277.173 185.907 198.688 108.759 124.079C104.855 120.88 101.341 117.66 98.2575 114.526C101.96 117.701 105.457 120.886 108.759 124.079C144.105 153.048 211.36 180.373 279.177 128.296Z" fill="black"/>
<path d="M310.474 98.2577C267.153 127.194 209.758 210.149 326.742 310.474C293.56 272.104 204.662 221.639 114.526 326.742C150.23 291.274 196.963 199.175 98.2575 114.526C133.562 150.421 225.432 197.42 310.474 98.2577Z" stroke="black" stroke-width="2"/>
<path d="M187.86 198.795C189.865 198.742 191.307 200.838 192.188 205.083L192.195 205.339C192.221 206.32 191.575 206.913 190.257 207.119C189.191 207.147 188.431 205.844 187.977 203.21L187.716 203.024L186.948 203.045C186.046 204.435 185.624 206.238 185.683 208.456L185.96 211.65C187.666 211.605 189.509 211.108 191.49 210.159C192.3 210.138 193.062 210.694 193.775 211.827C193.821 213.576 191.463 214.791 186.701 215.472L188.577 225.858C188.6 226.753 187.869 227.349 186.383 227.644C185.061 227.679 184.346 225.65 184.237 221.555L182.878 216.149L178.736 216.899C177.84 216.923 177.29 216.276 177.084 214.958C177.05 213.679 178.756 212.822 182.202 212.39L181.841 208.43C182.356 202.099 184.362 198.888 187.86 198.795ZM201.036 204.272C202.743 204.27 205.701 207.179 209.91 213L210.067 214.085C210.098 215.279 207.201 216.273 201.374 217.068L201.188 217.265L201.194 217.521C202.192 221.336 203.181 223.23 204.162 223.204L204.93 223.184C206.295 223.148 208.324 221.621 211.019 218.605L211.402 218.595C212.255 218.572 212.933 219.173 213.435 220.398C213.462 221.421 211.717 223.239 208.201 225.85C207.278 226.429 206.158 226.865 204.843 227.155C201.388 227.247 198.892 224.069 197.356 217.622C195.386 217.376 194.383 216.591 194.348 215.269C194.324 214.331 195.032 213.693 196.474 213.356L196.481 213.612L197.114 213.339L197.072 211.74C196.942 206.835 198.263 204.346 201.036 204.272ZM201.541 208.868L200.966 208.884L200.772 211.258L200.825 213.241L201.081 213.234C203.467 213.086 204.655 212.798 204.643 212.372C203.49 210.738 202.456 209.57 201.541 208.868ZM221.216 203.738C222.923 203.735 225.881 206.645 230.09 212.466L230.247 213.55C230.279 214.744 227.381 215.739 221.555 216.533L221.368 216.73L221.375 216.986C222.372 220.801 223.361 222.696 224.342 222.67L225.11 222.649C226.475 222.613 228.505 221.087 231.199 218.07L231.583 218.06C232.436 218.038 233.113 218.639 233.615 219.863C233.642 220.887 231.898 222.704 228.382 225.316C227.458 225.895 226.339 226.33 225.023 226.621C221.568 226.712 219.073 223.535 217.536 217.088C215.566 216.841 214.564 216.057 214.529 214.735C214.504 213.796 215.213 213.159 216.655 212.822L216.662 213.078L217.295 212.805L217.252 211.205C217.122 206.3 218.444 203.811 221.216 203.738ZM221.722 208.334L221.146 208.349L220.953 210.723L221.005 212.706L221.261 212.7C223.648 212.551 224.835 212.264 224.824 211.837C223.671 210.203 222.637 209.035 221.722 208.334ZM238.96 190.975C240.165 191.37 240.78 192.016 240.804 192.911L242.089 217.27L242.298 225.139C242.336 226.589 241.737 227.331 240.5 227.363L239.668 227.385C238.887 226.894 238.487 226.307 238.469 225.625L238.272 218.203L237.026 192.883C236.997 191.817 237.642 191.181 238.96 190.975ZM252.013 222.129C252.908 222.105 253.461 222.816 253.67 224.262C253.453 225.761 252.727 226.527 251.49 226.56C250.637 226.583 250.02 225.852 249.639 224.368C250.113 222.905 250.904 222.158 252.013 222.129Z" fill="#D9D9D9"/>
</svg>
