<svg width="327" height="314" viewBox="0 0 327 314" fill="none" xmlns="http://www.w3.org/2000/svg">
<rect x="96" width="5" height="5" fill="#251E21"/>
<rect x="97" y="5" width="5" height="5" fill="#251E21"/>
<rect x="98" y="10" width="5" height="5" fill="#251E21"/>
<rect x="99" y="15" width="5" height="5" fill="#251E21"/>
<rect x="99" y="20" width="5" height="5" fill="#251E21"/>
<rect x="101" y="20" width="5" height="5" fill="#251E21"/>
<rect x="99" y="25" width="5" height="5" fill="#251E21"/>
<rect x="103" y="25" width="5" height="5" fill="#251E21"/>
<rect x="100" y="30" width="5" height="5" fill="#251E21"/>
<rect x="101" y="35" width="5" height="5" fill="#251E21"/>
<rect x="109" y="35" width="5" height="5" fill="#251E21"/>
<rect x="111" y="40" width="5" height="5" fill="#251E21"/>
<rect x="101" y="40" width="5" height="5" fill="#251E21"/>
<rect x="101" y="45" width="5" height="5" fill="#251E21"/>
<rect x="101" y="50" width="5" height="5" fill="#251E21"/>
<rect x="101" y="57" width="5" height="5" fill="#251E21"/>
<rect x="101" y="55" width="5" height="5" fill="#251E21"/>
<rect x="101" y="30" width="5" height="5" fill="#251E21"/>
<rect x="114" y="44" width="5" height="5" fill="#251E21"/>
<rect x="117" y="49" width="5" height="5" fill="#251E21"/>
<rect x="121" y="53" width="5" height="5" fill="#251E21"/>
<rect x="125" y="57" width="5" height="5" fill="#251E21"/>
<rect x="129" y="61" width="5" height="5" fill="#251E21"/>
<rect x="133" y="65" width="5" height="5" fill="#251E21"/>
<rect x="137" y="69" width="5" height="5" fill="#251E21"/>
<rect x="140" y="73" width="5" height="5" fill="#251E21"/>
<rect x="144" y="75" width="5" height="5" fill="#251E21"/>
<rect x="149" y="78" width="5" height="5" fill="#251E21"/>
<rect x="154" y="80" width="5" height="5" fill="#251E21"/>
<rect x="158" y="82" width="5" height="5" fill="#251E21"/>
<rect x="163" y="84" width="5" height="5" fill="#251E21"/>
<rect x="168" y="85" width="5" height="5" fill="#251E21"/>
<rect x="173" y="85" width="5" height="5" fill="#251E21"/>
<rect x="178" y="84" width="5" height="5" fill="#251E21"/>
<rect x="183" y="84" width="5" height="5" fill="#251E21"/>
<rect x="188" y="83" width="5" height="5" fill="#251E21"/>
<rect x="193" y="82" width="5" height="5" fill="#251E21"/>
<rect x="198" y="79" width="5" height="5" fill="#251E21"/>
<rect x="203" y="76" width="5" height="5" fill="#251E21"/>
<rect x="208" y="74" width="5" height="5" fill="#251E21"/>
<rect x="212" y="71" width="5" height="5" fill="#251E21"/>
<rect x="216" y="69" width="5" height="5" fill="#251E21"/>
<rect x="219" y="66" width="5" height="5" fill="#251E21"/>
<rect x="222" y="63" width="5" height="5" fill="#251E21"/>
<rect x="225" y="59" width="5" height="5" fill="#251E21"/>
<rect x="228" y="56" width="5" height="5" fill="#251E21"/>
<rect x="232" y="53" width="5" height="5" fill="#251E21"/>
<rect x="236" y="50" width="5" height="5" fill="#251E21"/>
<rect x="239" y="46" width="5" height="5" fill="#251E21"/>
<rect x="238" y="50" width="5" height="5" fill="#251E21"/>
<rect x="236" y="54" width="5" height="5" fill="#251E21"/>
<rect x="234" y="59" width="5" height="5" fill="#251E21"/>
<rect x="232" y="64" width="5" height="5" fill="#251E21"/>
<rect x="230" y="69" width="5" height="5" fill="#251E21"/>
<rect x="229" y="74" width="5" height="5" fill="#251E21"/>
<rect x="228" y="79" width="5" height="5" fill="#251E21"/>
<rect x="227" y="84" width="5" height="5" fill="#251E21"/>
<rect x="225" y="89" width="5" height="5" fill="#251E21"/>
<rect x="224" y="93" width="5" height="5" fill="#251E21"/>
<rect x="224" y="98" width="5" height="5" fill="#251E21"/>
<rect x="224" y="103" width="5" height="5" fill="#251E21"/>
<rect x="225" y="108" width="5" height="5" fill="#251E21"/>
<rect x="226" y="113" width="5" height="5" fill="#251E21"/>
<rect x="227" y="118" width="5" height="5" fill="#251E21"/>
<rect x="229" y="123" width="5" height="5" fill="#251E21"/>
<rect x="231" y="127" width="5" height="5" fill="#251E21"/>
<rect x="233" y="131" width="5" height="5" fill="#251E21"/>
<rect x="237" y="136" width="5" height="5" fill="#251E21"/>
<rect x="240" y="140" width="5" height="5" fill="#251E21"/>
<rect x="244" y="144" width="5" height="5" fill="#251E21"/>
<rect x="248" y="147" width="5" height="5" fill="#251E21"/>
<rect x="252" y="150" width="5" height="5" fill="#251E21"/>
<rect x="257" y="152" width="5" height="5" fill="#251E21"/>
<rect x="262" y="154" width="5" height="5" fill="#251E21"/>
<rect x="267" y="155" width="5" height="5" fill="#251E21"/>
<rect x="272" y="156" width="5" height="5" fill="#251E21"/>
<rect x="277" y="158" width="5" height="5" fill="#251E21"/>
<rect x="282" y="159" width="5" height="5" fill="#251E21"/>
<rect x="287" y="160" width="5" height="5" fill="#251E21"/>
<rect x="292" y="160" width="5" height="5" fill="#251E21"/>
<rect x="297" y="161" width="5" height="5" fill="#251E21"/>
<rect x="302" y="161" width="5" height="5" fill="#251E21"/>
<rect x="307" y="161" width="5" height="5" fill="#251E21"/>
<rect x="310" y="164" width="5" height="5" fill="#251E21"/>
<rect x="305" y="166" width="5" height="5" fill="#251E21"/>
<rect x="300" y="168" width="5" height="5" fill="#251E21"/>
<rect x="296" y="171" width="5" height="5" fill="#251E21"/>
<rect x="292" y="174" width="5" height="5" fill="#251E21"/>
<rect x="287" y="176" width="5" height="5" fill="#251E21"/>
<rect x="283" y="179" width="5" height="5" fill="#251E21"/>
<rect x="279" y="182" width="5" height="5" fill="#251E21"/>
<rect x="275" y="185" width="5" height="5" fill="#251E21"/>
<rect x="271" y="188" width="5" height="5" fill="#251E21"/>
<rect x="267" y="191" width="5" height="5" fill="#251E21"/>
<rect x="263" y="195" width="5" height="5" fill="#251E21"/>
<rect x="258" y="197" width="5" height="5" fill="#251E21"/>
<rect x="255" y="200" width="5" height="5" fill="#251E21"/>
<rect x="252" y="203" width="5" height="5" fill="#251E21"/>
<rect x="249" y="207" width="5" height="5" fill="#251E21"/>
<rect x="246" y="211" width="5" height="5" fill="#251E21"/>
<rect x="243" y="215" width="5" height="5" fill="#251E21"/>
<rect x="241" y="220" width="5" height="5" fill="#251E21"/>
<rect x="240" y="225" width="5" height="5" fill="#251E21"/>
<rect x="240" y="230" width="5" height="5" fill="#251E21"/>
<rect x="241" y="235" width="5" height="5" fill="#251E21"/>
<rect x="243" y="240" width="5" height="5" fill="#251E21"/>
<rect x="245" y="245" width="5" height="5" fill="#251E21"/>
<rect x="248" y="249" width="5" height="5" fill="#251E21"/>
<rect x="251" y="253" width="5" height="5" fill="#251E21"/>
<rect x="255" y="257" width="5" height="5" fill="#251E21"/>
<rect x="259" y="260" width="5" height="5" fill="#251E21"/>
<rect x="263" y="263" width="5" height="5" fill="#251E21"/>
<rect x="267" y="266" width="5" height="5" fill="#251E21"/>
<rect x="262" y="265" width="5" height="5" fill="#251E21"/>
<rect x="257" y="263" width="5" height="5" fill="#251E21"/>
<rect x="252" y="262" width="5" height="5" fill="#251E21"/>
<rect x="247" y="261" width="5" height="5" fill="#251E21"/>
<rect x="242" y="260" width="5" height="5" fill="#251E21"/>
<rect x="237" y="259" width="5" height="5" fill="#251E21"/>
<rect x="232" y="259" width="5" height="5" fill="#251E21"/>
<rect x="227" y="259" width="5" height="5" fill="#251E21"/>
<rect x="222" y="259" width="5" height="5" fill="#251E21"/>
<rect x="217" y="260" width="5" height="5" fill="#251E21"/>
<rect x="212" y="261" width="5" height="5" fill="#251E21"/>
<rect x="207" y="262" width="5" height="5" fill="#251E21"/>
<rect x="202" y="263" width="5" height="5" fill="#251E21"/>
<rect x="197" y="264" width="5" height="5" fill="#251E21"/>
<rect x="192" y="265" width="5" height="5" fill="#251E21"/>
<rect x="187" y="267" width="5" height="5" fill="#251E21"/>
<rect x="182" y="269" width="5" height="5" fill="#251E21"/>
<rect x="178" y="272" width="5" height="5" fill="#251E21"/>
<rect x="175" y="276" width="5" height="5" fill="#251E21"/>
<rect x="172" y="281" width="5" height="5" fill="#251E21"/>
<rect x="170" y="285" width="5" height="5" fill="#251E21"/>
<rect x="169" y="290" width="5" height="5" fill="#251E21"/>
<rect x="169" y="295" width="5" height="5" fill="#251E21"/>
<rect x="167" y="294" width="5" height="5" fill="#251E21"/>
<rect x="163" y="289" width="5" height="5" fill="#251E21"/>
<rect x="160" y="286" width="5" height="5" fill="#251E21"/>
<rect x="157" y="282" width="5" height="5" fill="#251E21"/>
<rect x="153" y="279" width="5" height="5" fill="#251E21"/>
<rect x="148" y="277" width="5" height="5" fill="#251E21"/>
<rect x="143" y="274" width="5" height="5" fill="#251E21"/>
<rect x="138" y="272" width="5" height="5" fill="#251E21"/>
<rect x="133" y="270" width="5" height="5" fill="#251E21"/>
<rect x="128" y="270" width="5" height="5" fill="#251E21"/>
<rect x="123" y="270" width="5" height="5" fill="#251E21"/>
<rect x="118" y="271" width="5" height="5" fill="#251E21"/>
<rect x="113" y="273" width="5" height="5" fill="#251E21"/>
<rect x="108" y="275" width="5" height="5" fill="#251E21"/>
<rect x="103" y="277" width="5" height="5" fill="#251E21"/>
<rect x="98" y="279" width="5" height="5" fill="#251E21"/>
<rect x="93" y="281" width="5" height="5" fill="#251E21"/>
<rect x="89" y="284" width="5" height="5" fill="#251E21"/>
<rect x="86" y="287" width="5" height="5" fill="#251E21"/>
<rect x="82" y="289" width="5" height="5" fill="#251E21"/>
<rect x="77" y="292" width="5" height="5" fill="#251E21"/>
<rect x="76" y="290" width="5" height="5" fill="#251E21"/>
<rect x="78" y="286" width="5" height="5" fill="#251E21"/>
<rect x="80" y="281" width="5" height="5" fill="#251E21"/>
<rect x="81" y="276" width="5" height="5" fill="#251E21"/>
<rect x="81" y="271" width="5" height="5" fill="#251E21"/>
<rect x="81" y="266" width="5" height="5" fill="#251E21"/>
<rect x="80" y="262" width="5" height="5" fill="#251E21"/>
<rect x="79" y="258" width="5" height="5" fill="#251E21"/>
<rect x="77" y="253" width="5" height="5" fill="#251E21"/>
<rect x="75" y="249" width="5" height="5" fill="#251E21"/>
<rect x="72" y="245" width="5" height="5" fill="#251E21"/>
<rect x="69" y="241" width="5" height="5" fill="#251E21"/>
<rect x="66" y="238" width="5" height="5" fill="#251E21"/>
<rect x="62" y="234" width="5" height="5" fill="#251E21"/>
<rect x="57" y="231" width="5" height="5" fill="#251E21"/>
<rect x="53" y="228" width="5" height="5" fill="#251E21"/>
<rect x="48" y="226" width="5" height="5" fill="#251E21"/>
<rect x="44" y="223" width="5" height="5" fill="#251E21"/>
<rect x="39" y="222" width="5" height="5" fill="#251E21"/>
<rect x="34" y="220" width="5" height="5" fill="#251E21"/>
<rect x="29" y="219" width="5" height="5" fill="#251E21"/>
<rect x="24" y="218" width="5" height="5" fill="#251E21"/>
<rect x="19" y="216" width="5" height="5" fill="#251E21"/>
<rect x="14" y="214" width="5" height="5" fill="#251E21"/>
<rect x="14" y="212" width="5" height="5" fill="#251E21"/>
<rect x="18" y="210" width="5" height="5" fill="#251E21"/>
<rect x="23" y="208" width="5" height="5" fill="#251E21"/>
<rect x="23" y="208" width="5" height="5" fill="#251E21"/>
<rect x="27" y="205" width="5" height="5" fill="#251E21"/>
<rect x="32" y="203" width="5" height="5" fill="#251E21"/>
<rect x="37" y="201" width="5" height="5" fill="#251E21"/>
<rect x="41" y="197" width="5" height="5" fill="#251E21"/>
<rect x="46" y="194" width="5" height="5" fill="#251E21"/>
<rect x="49" y="189" width="5" height="5" fill="#251E21"/>
<rect x="53" y="185" width="5" height="5" fill="#251E21"/>
<rect x="55" y="180" width="5" height="5" fill="#251E21"/>
<rect x="57" y="175" width="5" height="5" fill="#251E21"/>
<rect x="57" y="170" width="5" height="5" fill="#251E21"/>
<rect x="56" y="165" width="5" height="5" fill="#251E21"/>
<rect x="54" y="160" width="5" height="5" fill="#251E21"/>
<rect x="52" y="155" width="5" height="5" fill="#251E21"/>
<rect x="50" y="150" width="5" height="5" fill="#251E21"/>
<rect x="48" y="146" width="5" height="5" fill="#251E21"/>
<rect x="45" y="142" width="5" height="5" fill="#251E21"/>
<rect x="43" y="138" width="5" height="5" fill="#251E21"/>
<rect x="39" y="134" width="5" height="5" fill="#251E21"/>
<rect x="41" y="131" width="5" height="5" fill="#251E21"/>
<rect x="46" y="132" width="5" height="5" fill="#251E21"/>
<rect x="51" y="133" width="5" height="5" fill="#251E21"/>
<rect x="56" y="133" width="5" height="5" fill="#251E21"/>
<rect x="61" y="133" width="5" height="5" fill="#251E21"/>
<rect x="66" y="132" width="5" height="5" fill="#251E21"/>
<rect x="70" y="129" width="5" height="5" fill="#251E21"/>
<rect x="75" y="127" width="5" height="5" fill="#251E21"/>
<rect x="78" y="122" width="5" height="5" fill="#251E21"/>
<rect x="82" y="118" width="5" height="5" fill="#251E21"/>
<rect x="85" y="114" width="5" height="5" fill="#251E21"/>
<rect x="88" y="110" width="5" height="5" fill="#251E21"/>
<rect x="91" y="105" width="5" height="5" fill="#251E21"/>
<rect x="92" y="101" width="5" height="5" fill="#251E21"/>
<rect x="94" y="96" width="5" height="5" fill="#251E21"/>
<rect x="95" y="91" width="5" height="5" fill="#251E21"/>
<rect x="96" y="86" width="5" height="5" fill="#251E21"/>
<rect x="97" y="81" width="5" height="5" fill="#251E21"/>
<rect x="98" y="77" width="5" height="5" fill="#251E21"/>
<rect x="99" y="72" width="5" height="5" fill="#251E21"/>
<rect x="100" y="67" width="5" height="5" fill="#251E21"/>
<rect x="101" y="62" width="5" height="5" fill="#251E21"/>
<rect x="36" y="130" width="5" height="5" fill="#251E21"/>
<rect x="32" y="127" width="5" height="5" fill="#251E21"/>
<rect x="28" y="123" width="5" height="5" fill="#251E21"/>
<rect x="24" y="120" width="5" height="5" fill="#251E21"/>
<rect x="20" y="116" width="5" height="5" fill="#251E21"/>
<rect x="16" y="112" width="5" height="5" fill="#251E21"/>
<rect x="12" y="108" width="5" height="5" fill="#251E21"/>
<rect x="9" y="104" width="5" height="5" fill="#251E21"/>
<rect x="9" y="213" width="5" height="5" fill="#251E21"/>
<rect x="4" y="212" width="5" height="5" fill="#251E21"/>
<rect y="211" width="5" height="5" fill="#251E21"/>
<rect x="73" y="295" width="5" height="5" fill="#251E21"/>
<rect x="70" y="299" width="5" height="5" fill="#251E21"/>
<rect x="169" y="299" width="5" height="5" fill="#251E21"/>
<rect x="170" y="304" width="5" height="5" fill="#251E21"/>
<rect x="171" y="309" width="5" height="5" fill="#251E21"/>
<rect x="272" y="268" width="5" height="5" fill="#251E21"/>
<rect x="276" y="270" width="5" height="5" fill="#251E21"/>
<rect x="280" y="272" width="5" height="5" fill="#251E21"/>
<rect x="312" y="161" width="5" height="5" fill="#251E21"/>
<rect x="317" y="161" width="5" height="5" fill="#251E21"/>
<rect x="322" y="161" width="5" height="5" fill="#251E21"/>
<rect x="232" y="64" width="5" height="5" fill="#251E21"/>
<rect x="242" y="43" width="5" height="5" fill="#251E21"/>
<rect x="245" y="40" width="5" height="5" fill="#251E21"/>
<rect x="248" y="36" width="5" height="5" fill="#251E21"/>
<rect x="250" y="31" width="5" height="5" fill="#251E21"/>
<rect x="106" y="30" width="5" height="5" fill="#251E21"/>
<path d="M67 138L43.5 135H41.5L49 148L57.5 161L60 174.5L57.5 186L47 198L30 208L17 215.5L32 221L50.5 227L67 238L80 255L84.5 273.5L78.5 294.5L100.5 282L115 273.5L136 271L153.5 280L166.5 290.5L171.5 301.5L174.5 282L184 271L206.5 263L238 261L263 265.5L261.5 263L248.5 250.5L242 235L244.5 218L261.5 198.5L287.5 179.5L306.5 168L308 164.5L287.5 162L263 157L248.5 148L232.5 130L226 108L228 86L239 55H236.5L217.5 71.5L201 83L172 89L144 77.5L119 51L104.5 30V68.5L100.5 77.5L97 102.5L85.5 121.5L67 138Z" fill="#251E21" stroke="#251E21"/>
<rect x="67" y="196" width="5" height="5" fill="#445E5D"/>
<rect x="63" y="199" width="5" height="5" fill="#445E5D"/>
<rect x="77.2278" y="215.175" width="5" height="5" transform="rotate(-11.2709 77.2278 215.175)" fill="#445E5D"/>
<rect x="73.8914" y="218.899" width="5" height="5" transform="rotate(-11.2709 73.8914 218.899)" fill="#445E5D"/>
<rect x="72" y="206" width="5" height="5" fill="#445E5D"/>
<rect x="68" y="210" width="5" height="5" fill="#445E5D"/>
<rect x="64" y="214" width="5" height="5" fill="#445E5D"/>
<ellipse cx="101.5" cy="174.5" rx="28.5" ry="43.5" fill="#818F73"/>
<rect x="97" y="217" width="5" height="5" fill="#445E5D"/>
<rect x="97" y="128" width="5" height="5" fill="#445E5D"/>
<rect x="101" y="217" width="5" height="5" fill="#445E5D"/>
<rect x="106" y="215" width="5" height="5" fill="#445E5D"/>
<rect x="111" y="214" width="5" height="5" fill="#445E5D"/>
<rect x="114" y="211" width="5" height="5" fill="#445E5D"/>
<rect x="117" y="208" width="5" height="5" fill="#445E5D"/>
<rect x="120" y="205" width="5" height="5" fill="#445E5D"/>
<rect x="122" y="201" width="5" height="5" fill="#445E5D"/>
<rect x="124" y="197" width="5" height="5" fill="#445E5D"/>
<rect x="125" y="193" width="5" height="5" fill="#445E5D"/>
<rect x="126" y="188" width="5" height="5" fill="#445E5D"/>
<rect x="127" y="183" width="5" height="5" fill="#445E5D"/>
<rect x="128" y="178" width="5" height="5" fill="#445E5D"/>
<rect x="128" y="173" width="5" height="5" fill="#445E5D"/>
<rect x="128" y="168" width="5" height="5" fill="#445E5D"/>
<rect x="127" y="163" width="5" height="5" fill="#445E5D"/>
<rect x="126" y="159" width="5" height="5" fill="#445E5D"/>
<rect x="125" y="154" width="5" height="5" fill="#445E5D"/>
<rect x="124" y="149" width="5" height="5" fill="#445E5D"/>
<rect x="122" y="144" width="5" height="5" fill="#445E5D"/>
<rect x="119" y="139" width="5" height="5" fill="#445E5D"/>
<rect x="115" y="135" width="5" height="5" fill="#445E5D"/>
<rect x="111" y="132" width="5" height="5" fill="#445E5D"/>
<rect x="107" y="130" width="5" height="5" fill="#445E5D"/>
<rect x="98" y="135" width="5" height="5" transform="rotate(-180 98 135)" fill="#445E5D"/>
<rect x="93" y="136" width="5" height="5" transform="rotate(-180 93 136)" fill="#445E5D"/>
<rect x="90" y="139" width="5" height="5" transform="rotate(-180 90 139)" fill="#445E5D"/>
<rect x="87" y="142" width="5" height="5" transform="rotate(-180 87 142)" fill="#445E5D"/>
<rect x="84" y="145" width="5" height="5" transform="rotate(-180 84 145)" fill="#445E5D"/>
<rect x="82" y="149" width="5" height="5" transform="rotate(-180 82 149)" fill="#445E5D"/>
<rect x="80" y="153" width="5" height="5" transform="rotate(-180 80 153)" fill="#445E5D"/>
<rect x="79" y="157" width="5" height="5" transform="rotate(-180 79 157)" fill="#445E5D"/>
<rect x="78" y="162" width="5" height="5" transform="rotate(-180 78 162)" fill="#445E5D"/>
<rect x="77" y="167" width="5" height="5" transform="rotate(-180 77 167)" fill="#445E5D"/>
<rect x="76" y="172" width="5" height="5" transform="rotate(-180 76 172)" fill="#445E5D"/>
<rect x="76" y="177" width="5" height="5" transform="rotate(-180 76 177)" fill="#445E5D"/>
<rect x="76" y="182" width="5" height="5" transform="rotate(-180 76 182)" fill="#445E5D"/>
<rect x="77" y="187" width="5" height="5" transform="rotate(-180 77 187)" fill="#445E5D"/>
<rect x="78" y="191" width="5" height="5" transform="rotate(-180 78 191)" fill="#445E5D"/>
<rect x="79" y="196" width="5" height="5" transform="rotate(-180 79 196)" fill="#445E5D"/>
<rect x="80" y="201" width="5" height="5" transform="rotate(-180 80 201)" fill="#445E5D"/>
<rect x="82" y="206" width="5" height="5" transform="rotate(-180 82 206)" fill="#445E5D"/>
<rect x="85" y="211" width="5" height="5" transform="rotate(-180 85 211)" fill="#445E5D"/>
<rect x="89" y="215" width="5" height="5" transform="rotate(-180 89 215)" fill="#445E5D"/>
<rect x="93" y="218" width="5" height="5" transform="rotate(-180 93 218)" fill="#445E5D"/>
<rect x="97" y="220" width="5" height="5" transform="rotate(-180 97 220)" fill="#445E5D"/>
<rect x="102" y="128" width="5" height="5" fill="#445E5D"/>
<rect x="97" y="128" width="5" height="5" fill="#445E5D"/>
<path d="M99.2567 132L124.513 157.257L99.2567 182.513L74 157.257L99.2567 132Z" fill="#445E5D"/>
<path fill-rule="evenodd" clip-rule="evenodd" d="M87.2985 168.054V143.869H90.0372V168.054H87.2985Z" fill="#251E21"/>
<rect x="235.874" y="218.953" width="5" height="5" transform="rotate(-124.679 235.874 218.953)" fill="#445E5D"/>
<rect x="240.617" y="220.536" width="5" height="5" transform="rotate(-124.679 240.617 220.536)" fill="#445E5D"/>
<rect x="245.823" y="199.632" width="5" height="5" transform="rotate(-135.95 245.823 199.632)" fill="#445E5D"/>
<rect x="250.784" y="200.257" width="5" height="5" transform="rotate(-135.95 250.784 200.257)" fill="#445E5D"/>
<rect x="241.253" y="209.152" width="5" height="5" transform="rotate(-124.679 241.253 209.152)" fill="#445E5D"/>
<rect x="246.818" y="210.165" width="5" height="5" transform="rotate(-124.679 246.818 210.165)" fill="#445E5D"/>
<rect x="252.383" y="211.178" width="5" height="5" transform="rotate(-124.679 252.383 211.178)" fill="#445E5D"/>
<ellipse cx="211.5" cy="174.5" rx="28.5" ry="43.5" fill="#818F73"/>
<rect x="207" y="217" width="5" height="5" fill="#445E5D"/>
<rect x="207" y="128" width="5" height="5" fill="#445E5D"/>
<rect x="211" y="217" width="5" height="5" fill="#445E5D"/>
<rect x="216" y="215" width="5" height="5" fill="#445E5D"/>
<rect x="221" y="214" width="5" height="5" fill="#445E5D"/>
<rect x="224" y="211" width="5" height="5" fill="#445E5D"/>
<rect x="227" y="208" width="5" height="5" fill="#445E5D"/>
<rect x="230" y="205" width="5" height="5" fill="#445E5D"/>
<rect x="232" y="201" width="5" height="5" fill="#445E5D"/>
<rect x="234" y="197" width="5" height="5" fill="#445E5D"/>
<rect x="235" y="193" width="5" height="5" fill="#445E5D"/>
<rect x="236" y="188" width="5" height="5" fill="#445E5D"/>
<rect x="237" y="183" width="5" height="5" fill="#445E5D"/>
<rect x="238" y="178" width="5" height="5" fill="#445E5D"/>
<rect x="238" y="173" width="5" height="5" fill="#445E5D"/>
<rect x="238" y="168" width="5" height="5" fill="#445E5D"/>
<rect x="237" y="163" width="5" height="5" fill="#445E5D"/>
<rect x="236" y="159" width="5" height="5" fill="#445E5D"/>
<rect x="235" y="154" width="5" height="5" fill="#445E5D"/>
<rect x="234" y="149" width="5" height="5" fill="#445E5D"/>
<rect x="232" y="144" width="5" height="5" fill="#445E5D"/>
<rect x="229" y="139" width="5" height="5" fill="#445E5D"/>
<rect x="225" y="135" width="5" height="5" fill="#445E5D"/>
<rect x="221" y="132" width="5" height="5" fill="#445E5D"/>
<rect x="217" y="130" width="5" height="5" fill="#445E5D"/>
<rect x="208" y="135" width="5" height="5" transform="rotate(-180 208 135)" fill="#445E5D"/>
<rect x="203" y="136" width="5" height="5" transform="rotate(-180 203 136)" fill="#445E5D"/>
<rect x="200" y="139" width="5" height="5" transform="rotate(-180 200 139)" fill="#445E5D"/>
<rect x="197" y="142" width="5" height="5" transform="rotate(-180 197 142)" fill="#445E5D"/>
<rect x="194" y="145" width="5" height="5" transform="rotate(-180 194 145)" fill="#445E5D"/>
<rect x="192" y="149" width="5" height="5" transform="rotate(-180 192 149)" fill="#445E5D"/>
<rect x="190" y="153" width="5" height="5" transform="rotate(-180 190 153)" fill="#445E5D"/>
<rect x="189" y="157" width="5" height="5" transform="rotate(-180 189 157)" fill="#445E5D"/>
<rect x="188" y="162" width="5" height="5" transform="rotate(-180 188 162)" fill="#445E5D"/>
<rect x="187" y="167" width="5" height="5" transform="rotate(-180 187 167)" fill="#445E5D"/>
<rect x="186" y="172" width="5" height="5" transform="rotate(-180 186 172)" fill="#445E5D"/>
<rect x="186" y="177" width="5" height="5" transform="rotate(-180 186 177)" fill="#445E5D"/>
<rect x="186" y="182" width="5" height="5" transform="rotate(-180 186 182)" fill="#445E5D"/>
<rect x="187" y="187" width="5" height="5" transform="rotate(-180 187 187)" fill="#445E5D"/>
<rect x="188" y="191" width="5" height="5" transform="rotate(-180 188 191)" fill="#445E5D"/>
<rect x="189" y="196" width="5" height="5" transform="rotate(-180 189 196)" fill="#445E5D"/>
<rect x="190" y="201" width="5" height="5" transform="rotate(-180 190 201)" fill="#445E5D"/>
<rect x="192" y="206" width="5" height="5" transform="rotate(-180 192 206)" fill="#445E5D"/>
<rect x="195" y="211" width="5" height="5" transform="rotate(-180 195 211)" fill="#445E5D"/>
<rect x="199" y="215" width="5" height="5" transform="rotate(-180 199 215)" fill="#445E5D"/>
<rect x="203" y="218" width="5" height="5" transform="rotate(-180 203 218)" fill="#445E5D"/>
<rect x="207" y="220" width="5" height="5" transform="rotate(-180 207 220)" fill="#445E5D"/>
<rect x="212" y="128" width="5" height="5" fill="#445E5D"/>
<rect x="207" y="128" width="5" height="5" fill="#445E5D"/>
<path d="M209.257 132L234.513 157.257L209.257 182.513L184 157.257L209.257 132Z" fill="#445E5D"/>
<path fill-rule="evenodd" clip-rule="evenodd" d="M197.298 168.054V143.869H200.037V168.054H197.298Z" fill="#251E21"/>
</svg>
