<svg width="302" height="302" viewBox="0 0 302 302" fill="none" xmlns="http://www.w3.org/2000/svg">
<path d="M146.637 43.5147C145.468 27.6044 147.435 12.4982 150.839 0.339166C150.839 16.2671 149.348 30.6118 146.637 43.5147C149.988 89.1224 179.102 141.338 273.954 149.688C283.959 149.122 293.294 149.632 301.339 150.839C291.653 150.839 282.535 150.443 273.954 149.688C223.732 152.525 156.64 182.459 151.193 287.385C151.319 292.344 151.184 297.027 150.839 301.339C150.839 296.547 150.959 291.897 151.193 287.385C149.918 236.828 121.661 157.666 14.5292 151.255C9.48342 151.367 4.71996 151.212 0.339105 150.839C5.21627 150.839 9.94494 150.98 14.5292 151.255C60.219 150.234 129.059 127.194 146.637 43.5147Z" fill="black"/>
<path d="M150.839 0.339166C136.792 50.5058 147.227 150.839 301.339 150.839C251.172 143.314 150.839 162.879 150.839 301.339C154.852 251.173 130.371 150.839 0.339106 150.839C50.5058 155.103 150.839 130.973 150.839 0.339166Z" stroke="black" stroke-width="2"/>
<path d="M113.669 133.464C114.864 133.891 115.461 134.552 115.461 135.448L116.101 159.832V167.704C116.101 169.155 115.483 169.88 114.245 169.88H113.413C112.645 169.368 112.261 168.771 112.261 168.088V160.664L111.685 135.32C111.685 134.254 112.347 133.635 113.669 133.464ZM130.949 144.6C134.106 144.6 136.495 146.947 138.117 151.64L138.373 152.984C138.373 157.55 136.239 162.222 131.973 167C130.266 168.579 128.538 169.368 126.789 169.368C124.229 169.368 122.415 167.896 121.349 164.952C120.965 163.587 120.773 162.392 120.773 161.368V160.6C120.773 153.859 123.226 148.739 128.133 145.24C128.986 144.814 129.925 144.6 130.949 144.6ZM124.549 161.24C124.549 164.142 125.295 165.592 126.789 165.592C129.903 165.592 132.485 161.603 134.533 153.624V152.408C133.807 149.763 132.463 148.44 130.501 148.44C129.733 148.44 129.349 148.974 129.349 150.04C129.349 150.766 128.495 151.342 126.789 151.768C125.295 154.286 124.549 157.443 124.549 161.24ZM151.449 144.6C154.606 144.6 156.995 146.947 158.617 151.64L158.873 152.984C158.873 157.55 156.739 162.222 152.473 167C150.766 168.579 149.038 169.368 147.289 169.368C144.729 169.368 142.915 167.896 141.849 164.952C141.465 163.587 141.273 162.392 141.273 161.368V160.6C141.273 153.859 143.726 148.739 148.633 145.24C149.486 144.814 150.425 144.6 151.449 144.6ZM145.049 161.24C145.049 164.142 145.795 165.592 147.289 165.592C150.403 165.592 152.985 161.603 155.033 153.624V152.408C154.307 149.763 152.963 148.44 151.001 148.44C150.233 148.44 149.849 148.974 149.849 150.04C149.849 150.766 148.995 151.342 147.289 151.768C145.795 154.286 145.049 157.443 145.049 161.24ZM164.973 134.872H165.357C165.911 134.872 166.445 135.342 166.957 136.28L166.701 140.632V143.064L166.957 154.264L167.149 154.904H167.341C169.175 153.198 170.775 150.19 172.141 145.88L173.549 145.432C174.743 145.603 175.341 146.136 175.341 147.032C175.341 149.806 173.357 153.539 169.389 158.232V158.68C174.637 164.782 178.093 167.832 179.757 167.832H180.141L181.741 166.872H182.317C183.213 166.872 183.874 167.47 184.301 168.664C184.301 170.03 182.786 170.968 179.757 171.48C176.727 171.48 172.781 168.408 167.917 162.264H167.341L167.533 165.72V169.048C167.277 170.371 166.615 171.032 165.549 171.032C164.354 170.776 163.757 170.115 163.757 169.048V168.664L163.501 161.304C163.031 161.304 162.711 160.643 162.541 159.32L163.373 157.72L162.989 143.32V140.504C162.989 136.75 163.65 134.872 164.973 134.872ZM191.205 164.952C192.101 164.952 192.635 165.678 192.805 167.128C192.549 168.622 191.803 169.368 190.565 169.368C189.712 169.368 189.115 168.622 188.773 167.128C189.285 165.678 190.096 164.952 191.205 164.952Z" fill="#D9D9D9"/>
</svg>
