<svg width="369" height="369" viewBox="0 0 369 369" fill="none" xmlns="http://www.w3.org/2000/svg">
<path d="M287.08 152.663C302.145 147.416 317.246 145.406 329.871 145.548C314.486 149.67 300.244 151.942 287.08 152.663C243.893 167.704 200.992 209.34 217.477 303.122C220.612 312.64 222.535 321.789 223.452 329.872C220.945 320.516 218.968 311.606 217.477 303.122C201.737 255.345 155.458 198.287 52.6977 220.183C47.9408 221.587 43.3825 222.669 39.1278 223.452C43.7569 222.212 48.2795 221.124 52.6977 220.183C101.203 205.866 170.353 158.083 148.819 52.9422C147.404 48.0975 146.322 43.4561 145.547 39.1281C146.81 43.8391 147.897 48.4431 148.819 52.9422C161.63 96.8111 201.702 157.342 287.08 152.663Z" fill="black"/>
<path d="M329.871 145.548C277.779 144.964 183.565 181.011 223.452 329.872C217.736 279.467 172.87 187.616 39.1278 223.452C88.6238 214.345 179.202 164.729 145.547 39.1281C154.413 88.689 203.689 179.358 329.871 145.548Z" stroke="black" stroke-width="2"/>
<path d="M148.371 172.517C151.017 173.157 152.339 173.883 152.339 174.693C151.401 179.899 150.931 185.083 150.931 190.245L150.931 194.277C150.931 200.805 151.529 204.944 152.723 206.693C154.601 204.56 155.539 201.573 155.539 197.733L155.539 197.093C155.539 195.088 154.878 193.744 153.555 193.061C153.214 193.061 152.937 192.613 152.723 191.717C153.107 190.48 153.833 189.861 154.899 189.861C157.843 190.715 159.315 193.509 159.315 198.245C158.718 205.243 156.67 209.467 153.171 210.917L152.723 210.917C149.011 210.917 147.155 205.179 147.155 193.701L147.155 191.845L146.899 191.845C145.022 194.405 143.422 195.685 142.099 195.685C139.71 195.685 138.195 193.701 137.555 189.733C137.555 185.253 139.475 180.368 143.315 175.077C144.894 173.371 146.579 172.517 148.371 172.517ZM141.715 186.277L141.331 189.477L141.331 190.885L142.099 191.717C143.337 191.717 145.214 187.365 147.731 178.661L148.115 176.293L147.539 176.293C145.662 177.232 143.721 180.56 141.715 186.277ZM163.849 175.397L165.001 174.757C166.025 174.757 166.772 175.376 167.241 176.613C166.558 179.771 166.217 183.013 166.217 186.341C166.217 188.005 166.708 189.819 167.689 191.781L168.073 191.781C169.31 191.781 170.782 186.896 172.489 177.125C173.086 176.613 173.662 176.357 174.217 176.357C175.54 176.357 176.201 178.704 176.201 183.397C176.756 188.56 177.374 191.141 178.057 191.141L179.017 190.757C180.254 191.227 180.873 191.888 180.873 192.741C180.105 194.363 179.038 195.173 177.673 195.173C176.137 195.173 174.665 193.637 173.257 190.565C171.55 194.149 169.822 195.941 168.073 195.941C165.47 195.941 163.657 193.232 162.633 187.813L162.441 185.765L162.441 185.125C162.441 181.712 162.91 178.469 163.849 175.397ZM182.994 161.317C184.616 161.659 185.426 162.384 185.426 163.493C185 164.688 184.317 165.285 183.378 165.285C181.8 164.987 181.01 164.197 181.01 162.917C181.437 161.851 182.098 161.317 182.994 161.317ZM185.426 170.277C186.109 170.277 186.685 170.896 187.154 172.133L186.578 176.677L186.578 179.685C186.578 183.184 187.176 187.771 188.37 193.445C187.944 194.256 187.218 194.661 186.194 194.661C184.445 194.661 183.293 189.541 182.738 179.301L182.738 177.061C182.738 172.539 183.634 170.277 185.426 170.277ZM199.216 155.813C200.411 156.069 201.008 156.667 201.008 157.605L200.624 160.421L200.624 161.253C200.624 163.131 200.837 165.115 201.264 167.205L201.392 167.205C206.341 165.712 209.413 164.965 210.608 164.965C211.845 165.307 212.464 165.925 212.464 166.821C212.464 168.272 210.992 168.997 208.048 168.997L201.392 171.365C201.392 177.125 202.011 184.955 203.248 194.853C202.992 196.005 202.373 196.581 201.392 196.581L201.264 196.581C199.771 196.581 199.024 194.661 199.024 190.821C198.469 187.963 198 181.755 197.616 172.197L196.464 172.197C192.453 171.941 190.448 171.003 190.448 169.381C190.448 168.912 190.896 168.336 191.792 167.653L192.432 167.653L195.376 168.421L197.424 168.421L196.848 160.421C196.848 157.349 197.637 155.813 199.216 155.813ZM219.598 190.885C220.494 190.885 221.027 191.611 221.198 193.061C220.942 194.555 220.195 195.301 218.958 195.301C218.105 195.301 217.507 194.555 217.166 193.061C217.678 191.611 218.489 190.885 219.598 190.885Z" fill="#D9D9D9"/>
</svg>
