<svg width="427" height="427" viewBox="0 0 427 427" fill="none" xmlns="http://www.w3.org/2000/svg">
<path d="M134.639 140.581C122.562 130.158 113.271 118.086 107.08 107.08C118.343 118.343 127.432 129.541 134.639 140.581C169.258 170.462 226.766 186.797 299.741 125.63C306.416 118.156 313.378 111.916 319.92 107.08C313.071 113.929 306.343 120.097 299.741 125.63C266.235 163.149 239.96 231.757 310.303 309.802C313.898 313.22 317.114 316.626 319.92 319.92C316.531 316.531 313.328 313.158 310.303 309.802C273.652 274.954 197.696 238.959 117.408 310.179C113.92 313.827 110.441 317.085 107.08 319.92C110.529 316.471 113.973 313.227 117.408 310.179C148.994 277.15 181.38 212.181 134.639 140.581Z" fill="#D9D9D9"/>
<path d="M107.08 107.08C132.621 152.486 210.946 216.054 319.92 107.08C279.125 137.233 222.014 222.014 319.92 319.92C287.284 281.609 199.027 227.973 107.08 319.92C145.569 287.462 199.453 199.453 107.08 107.08Z" stroke="#D9D9D9" stroke-width="2"/>
<path d="M187.13 206.173C189.818 206.173 191.418 208.05 191.93 211.805V212.381C191.93 216.52 189.797 220.317 185.53 223.773C188.005 226.205 192.336 227.421 198.522 227.421C199.461 227.72 199.93 228.381 199.93 229.405C199.93 230.557 199.184 231.133 197.69 231.133C193.509 231.133 189.114 230.066 184.506 227.933V229.789C184.506 234.184 183.568 236.381 181.69 236.381C180.368 236.381 179.706 233.842 179.706 228.765V223.773L179.514 221.981L179.962 219.933L179.514 213.789V213.533C179.514 212.381 180.112 211.592 181.306 211.165C182.97 207.837 184.912 206.173 187.13 206.173ZM183.93 220.189C185.168 220.189 186.554 217.97 188.09 213.533V210.781L187.322 209.949H186.746C184.869 211.229 183.93 214.642 183.93 220.189ZM204.617 212.125L205.769 211.485C206.793 211.485 207.54 212.104 208.009 213.341C207.327 216.498 206.985 219.741 206.985 223.069C206.985 224.733 207.476 226.546 208.457 228.509H208.841C210.079 228.509 211.551 223.624 213.257 213.853C213.855 213.341 214.431 213.085 214.985 213.085C216.308 213.085 216.969 215.432 216.969 220.125C217.524 225.288 218.143 227.869 218.825 227.869L219.785 227.485C221.023 227.954 221.641 228.616 221.641 229.469C220.873 231.09 219.807 231.901 218.441 231.901C216.905 231.901 215.433 230.365 214.025 227.293C212.319 230.877 210.591 232.669 208.841 232.669C206.239 232.669 204.425 229.96 203.401 224.541L203.209 222.493V221.853C203.209 218.44 203.679 215.197 204.617 212.125ZM231.315 209.821C234.941 210.12 236.755 211.89 236.755 215.133L236.883 215.965L236.755 225.949C236.755 227.101 237.416 228.658 238.739 230.621V230.749C238.397 231.986 237.779 232.605 236.883 232.605C234.237 231.496 232.915 229.149 232.915 225.565V224.733L232.723 224.605L232.915 224.349V224.221L233.107 215.389C233.107 214.152 232.573 213.533 231.507 213.533H230.739C228.605 214.386 227.539 219.058 227.539 227.549C227.539 230.493 226.792 231.965 225.299 231.965C224.147 231.965 223.549 231.24 223.507 229.789V223.389C223.507 215.112 224.232 210.973 225.683 210.973L226.323 210.781L227.667 210.973C228.819 210.205 230.035 209.821 231.315 209.821ZM245.929 227.613C246.825 227.613 247.358 228.338 247.529 229.789C247.273 231.282 246.526 232.029 245.289 232.029C244.435 232.029 243.838 231.282 243.497 229.789C244.009 228.338 244.819 227.613 245.929 227.613Z" fill="black"/>
</svg>
