<svg width="303" height="303" viewBox="0 0 303 303" fill="none" xmlns="http://www.w3.org/2000/svg">
<path d="M44.1755 155.702C28.2652 156.871 13.1591 154.905 1 151.5C16.928 151.5 31.2726 152.992 44.1755 155.702C89.7832 152.351 141.999 123.237 150.348 28.3846C149.783 18.3801 150.293 9.04497 151.5 1C151.5 10.6859 151.104 19.8042 150.348 28.3846C153.186 78.607 183.12 145.7 288.046 151.146C293.005 151.021 297.688 151.155 302 151.5C297.208 151.5 292.558 151.38 288.046 151.146C237.489 152.421 158.327 180.678 151.916 287.81C152.028 292.856 151.872 297.619 151.5 302C151.5 297.123 151.641 292.394 151.916 287.81C150.895 242.12 127.855 173.28 44.1755 155.702Z" fill="#D9D9D9"/>
<path d="M1 151.5C51.1667 165.547 151.5 155.112 151.5 1C143.975 51.1667 163.54 151.5 302 151.5C251.833 147.487 151.5 171.968 151.5 302C155.764 251.833 131.634 151.5 1 151.5Z" stroke="#D9D9D9" stroke-width="2"/>
<path d="M110.08 146.08C111.232 146.08 112.021 148.021 112.448 151.904C112.021 152.971 111.317 153.504 110.336 153.504C109.653 153.376 108.971 152.587 108.288 151.136L107.136 150.752C105.131 150.752 103.317 152.075 101.696 154.72V155.296C101.696 155.936 104.704 157.003 110.72 158.496C113.237 159.989 114.496 161.803 114.496 163.936C114.496 167.435 111.68 170.421 106.048 172.896L103.68 173.28C100.096 172.896 98.304 171.104 98.304 167.904V167.712C98.304 166.688 98.9653 166.091 100.288 165.92C101.312 165.92 101.995 166.987 102.336 169.12L102.848 169.504H103.936C106.368 169.504 108.629 167.84 110.72 164.512V163.68C110.72 162.4 107.925 161.205 102.336 160.096C99.392 158.901 97.92 157.237 97.92 155.104C97.92 152.331 100.245 149.728 104.896 147.296C106.944 147.04 108.672 146.635 110.08 146.08ZM124.393 133.152C125.588 133.408 126.185 134.005 126.185 134.944L125.801 137.76V138.592C125.801 140.469 126.014 142.453 126.441 144.544H126.569C131.518 143.051 134.59 142.304 135.785 142.304C137.022 142.645 137.641 143.264 137.641 144.16C137.641 145.611 136.169 146.336 133.225 146.336L126.569 148.704C126.569 154.464 127.188 162.293 128.425 172.192C128.169 173.344 127.55 173.92 126.569 173.92H126.441C124.948 173.92 124.201 172 124.201 168.16C123.646 165.301 123.177 159.093 122.793 149.536H121.641C117.63 149.28 115.625 148.341 115.625 146.72C115.625 146.251 116.073 145.675 116.969 144.992H117.609L120.553 145.76H122.601L122.025 137.76C122.025 134.688 122.814 133.152 124.393 133.152ZM151.559 147.296C153.436 147.296 154.375 148.043 154.375 149.536L153.799 150.752L153.415 162.464C153.415 167.755 154.482 171.04 156.615 172.32L156.743 173.28C156.615 174.517 156.039 175.136 155.015 175.136H154.631C151.431 172.96 149.831 169.632 149.831 165.152H149.383C147.676 169.931 145.607 172.32 143.175 172.32C140.914 171.68 139.783 169.995 139.783 167.264C139.783 161.248 142.194 155.253 147.015 149.28C148.636 147.957 150.151 147.296 151.559 147.296ZM143.815 164.704L143.559 166.496V167.712H144.199C147.399 159.733 148.999 154.869 148.999 153.12H148.743C146.268 155.893 144.626 159.755 143.815 164.704ZM166.727 146.784C169.415 146.784 171.015 148.661 171.527 152.416V152.992C171.527 157.131 169.393 160.928 165.127 164.384C167.601 166.816 171.932 168.032 178.119 168.032C179.057 168.331 179.527 168.992 179.527 170.016C179.527 171.168 178.78 171.744 177.287 171.744C173.105 171.744 168.711 170.677 164.103 168.544V170.4C164.103 174.795 163.164 176.992 161.286 176.992C159.964 176.992 159.303 174.453 159.303 169.376V164.384L159.111 162.592L159.559 160.544L159.111 154.4V154.144C159.111 152.992 159.708 152.203 160.903 151.776C162.567 148.448 164.508 146.784 166.727 146.784ZM163.527 160.8C164.764 160.8 166.151 158.581 167.687 154.144V151.392L166.919 150.56H166.343C164.465 151.84 163.527 155.253 163.527 160.8ZM189.206 133.152C190.4 133.408 190.998 134.005 190.998 134.944L190.614 137.76V138.592C190.614 140.469 190.827 142.453 191.254 144.544H191.382C196.331 143.051 199.403 142.304 200.598 142.304C201.835 142.645 202.454 143.264 202.454 144.16C202.454 145.611 200.982 146.336 198.038 146.336L191.382 148.704C191.382 154.464 192 162.293 193.238 172.192C192.982 173.344 192.363 173.92 191.382 173.92H191.254C189.76 173.92 189.014 172 189.014 168.16C188.459 165.301 187.99 159.093 187.606 149.536H186.454C182.443 149.28 180.438 148.341 180.438 146.72C180.438 146.251 180.886 145.675 181.782 144.992H182.422L185.366 145.76H187.414L186.838 137.76C186.838 134.688 187.627 133.152 189.206 133.152Z" fill="black"/>
</svg>
